HIERARCHY
ROOT Hips
{
	OFFSET 0.00000 0.00000 0.00000
	CHANNELS 6 Xposition Yposition Zposition Zrotation Yrotation Xrotation 
	JOINT LHipJoint
	{
		OFFSET 0 0 0
		CHANNELS 3 Zrotation Yrotation Xrotation
		JOINT LeftHip
		{
			OFFSET 1.84395 -1.68683 0.74144
			CHANNELS 3 Zrotation Yrotation Xrotation
			JOINT LeftKnee
			{
				OFFSET 2.27037 -6.23779 0.00000
				CHANNELS 3 Zrotation Yrotation Xrotation
				JOINT LeftAnkle
				{
					OFFSET 2.56918 -7.05877 0.00000
					CHANNELS 3 Zrotation Yrotation Xrotation
					JOINT LeftToe
					{
						OFFSET 0.22276 -0.61202 1.71784
						CHANNELS 3 Zrotation Yrotation Xrotation
						End Site
						{
							OFFSET 0.00000 -0.00000 0.91613
						}
					}
				}
			}
		}
	}
	JOINT RHipJoint
	{
		OFFSET 0 0 0
		CHANNELS 3 Zrotation Yrotation Xrotation
		JOINT RightHip
		{
			OFFSET -1.76833 -1.68684 0.74144
			CHANNELS 3 Zrotation Yrotation Xrotation
			JOINT RightKnee
			{
				OFFSET -2.49360 -6.85110 0.00000
				CHANNELS 3 Zrotation Yrotation Xrotation
				JOINT RightAnkle
				{
					OFFSET -2.55538 -7.02085 0.00000
					CHANNELS 3 Zrotation Yrotation Xrotation
					JOINT RightToe
					{
						OFFSET -0.21516 -0.59115 1.68050
						CHANNELS 3 Zrotation Yrotation Xrotation
						End Site
						{
							OFFSET -0.00000 -0.00000 0.89604
						}
					}
				}
			}
		}
	}
	JOINT lowerback
	{
		OFFSET 0 0 0
		CHANNELS 3 Zrotation Yrotation Xrotation
		JOINT Chest
		{
			OFFSET 0.06382 1.72312 -0.19613
			CHANNELS 3 Zrotation Yrotation Xrotation
			JOINT Chest2
			{
				OFFSET -0.00055 1.73507 0.23859
				CHANNELS 3 Zrotation Yrotation Xrotation
				JOINT lowerneck
				{
					OFFSET 0 0 0
					CHANNELS 3 Zrotation Yrotation Xrotation
					JOINT Neck
					{
						OFFSET 0.03638 1.65562 0.09633
						CHANNELS 3 Zrotation Yrotation Xrotation
						JOINT Head
						{
							OFFSET 0.06388 1.62807 -0.32386
							CHANNELS 3 Zrotation Yrotation Xrotation
							End Site
							{
								OFFSET 0.00995 1.67644 -0.12021
							}
						}
					}
				}
				JOINT LeftCollar
				{
					OFFSET 0 0 0
					CHANNELS 3 Zrotation Yrotation Xrotation
					JOINT LeftShoulder
					{
						OFFSET 3.09648 1.42991 0.28122
CHANNELS 3 Zrotation Xrotation Yrotation
						JOINT LeftElbow
						{
OFFSET 0 -5.118780 -0.000000
CHANNELS 3 Zrotation Xrotation Yrotation
							JOINT LeftWrist
							{
OFFSET 0 -3.599710 0.000000
CHANNELS 3 Zrotation Xrotation Yrotation
								JOINT lhand
								{
									OFFSET 0 0 0
CHANNELS 3 Zrotation Xrotation Yrotation
									JOINT LFingers
									{
OFFSET 0 -0.628770 0.000000
CHANNELS 3 Zrotation Xrotation Yrotation
										End Site
										{
OFFSET 0 -0.506930 0.000000
										}
									}
								}
								JOINT LThumb
								{
OFFSET 0 0.000000 0.000000
CHANNELS 3 Zrotation Xrotation Yrotation
									End Site
									{
OFFSET 0 -0.514670 0.514670
									}
								}
							}
						}
					}
				}
				JOINT RightCollar
				{
					OFFSET 0 0 0
					CHANNELS 3 Zrotation Yrotation Xrotation
					JOINT RightShoulder
					{
						OFFSET -3.33565 1.14597 0.05047
CHANNELS 3 Zrotation Xrotation Yrotation
						JOINT RightElbow
						{
OFFSET 0 -5.490200 0.000000
CHANNELS 3 Zrotation Xrotation Yrotation
							JOINT RightWrist
							{
OFFSET 0 -3.206590 -0.000000
CHANNELS 3 Zrotation Xrotation Yrotation
								JOINT rhand
								{
									OFFSET 0 0 0
CHANNELS 3 Zrotation Xrotation Yrotation
									JOINT RFingers
									{
OFFSET 0 -0.691880 0.000000
CHANNELS 3 Zrotation Xrotation Yrotation
										End Site
										{
OFFSET 0 -0.557810 0.000000
										}
									}
								}
								JOINT RThumb
								{
OFFSET 0 0.000000 0.000000
CHANNELS 3 Zrotation Xrotation Yrotation
									End Site
									{
OFFSET 0 -0.566330 0.566330
									}
								}
							}
						}
					}
				}
			}
		}
	}
}
MOTION
Frames: 6
Frame Time: 0.008333333333333333
0.151700 17.470900 7.880100 -10.320400 0.976700 9.739100 0.000000 0.000000 0.000000 -14.473800 -40.278200 19.476600 0.057900 -1.553300 -4.272700 -6.054300 42.223600 -37.275800 1.994600 8.854700 25.342000 0.000000 0.000000 0.000000 28.349500 24.043800 2.823800 -0.033600 -1.183800 3.254600 1.122900 -22.986900 -23.517100 -0.129900 -2.322900 6.398900 7.262500 1.826300 -1.163100 1.283300 2.935500 -10.590500 -2.887700 0.865300 -10.395500 -13.718200 -13.613400 4.858000 14.809600 -20.609300 12.468300 5.605000 -10.291500 5.946400 -0.000000 -0.000000 0.000000 -1.671400 12.132700 -18.356800 10.617800 -17.700000 1.657800 31.608500 16.803600 23.340000 0.000000 0.000000 0.000000 -7.125000 0.000000 0.000000 1.504800 3.118300 1.421200 -0.000000 -0.000000 0.000000 4.250200 11.903100 0.500800 -12.674500 -20.808500 -2.336400 -6.386300 52.035400 31.789000 0.000000 0.000000 0.000000 7.125000 0.000000 -0.000000 29.031600 59.500300 -10.836500
0.149093 17.469003 7.877501 -10.318057 0.735871 9.836573 0.000000 0.000000 0.000000 -14.310399 -40.024671 19.236389 0.058798 -1.564270 -4.302818 -5.983746 42.101431 -37.292311 1.822011 8.485102 24.197390 0.000000 0.000000 0.000000 28.336934 24.298398 2.837855 -0.032092 -1.157155 3.181402 1.114311 -22.977357 -23.585822 -0.205670 -2.919684 8.055201 6.992752 1.494959 -1.281181 1.819995 2.503930 -10.547905 -2.128837 0.709315 -10.349950 -13.247313 -13.805031 1.395817 11.048406 -20.469256 17.240620 4.025178 -10.139947 7.591302 0.000000 0.000000 0.000000 -2.637687 12.360590 -16.762818 10.671500 -17.783000 1.674200 32.098346 16.582079 23.802962 0.000000 0.000000 0.000000 -7.125000 0.000000 0.000000 1.725399 2.484045 1.649796 0.000000 0.000000 0.000000 3.244993 11.861557 1.971108 -12.636581 -20.752376 -2.322923 -6.280054 51.893105 31.948714 0.000000 0.000000 0.000000 7.125000 0.000000 0.000000 29.282425 59.613876 -11.020933
0.138197 17.481596 7.902594 -9.610911 0.703357 10.466879 0.000000 0.000000 0.000000 -14.822406 -40.654202 18.741442 0.056395 -1.533033 -4.216714 -5.908403 42.179627 -37.971193 1.668171 8.137632 23.132892 0.000000 0.000000 0.000000 27.392284 24.808326 2.981648 -0.013900 -0.761102 2.091805 1.292478 -23.764378 -23.431486 -0.245923 -3.191446 8.812107 6.161026 1.179702 -1.829569 1.930002 2.022691 -10.935074 -1.504588 0.543127 -10.521243 -12.249818 -13.807949 1.738647 8.777120 -20.007218 16.371070 3.301141 -10.022898 6.848083 0.000000 0.000000 0.000000 -3.095026 13.142534 -16.230848 10.948184 -18.208776 1.759695 31.512378 18.311988 21.889056 0.000000 0.000000 0.000000 -7.125000 0.000000 0.000000 1.677037 4.755653 1.532865 0.000000 0.000000 0.000000 2.317570 12.145272 4.215020 -12.220223 -20.134135 -2.177508 -1.996561 48.351701 32.594498 0.000000 0.000000 0.000000 7.125000 0.000000 0.000000 34.117043 59.180397 -12.732824
0.135599 17.481698 7.897892 -9.637825 0.690095 10.522774 0.000000 0.000000 0.000000 -14.636640 -40.579232 18.500887 0.054501 -1.506506 -4.143816 -5.727006 41.896146 -38.107701 1.549196 7.856108 22.277708 0.000000 0.000000 0.000000 27.422712 24.926867 2.944368 -0.014503 -0.777064 2.135676 1.282980 -23.751953 -23.504853 -0.260337 -3.282302 9.065691 6.112001 0.825201 -1.630137 2.341092 1.596407 -11.012554 -1.008657 0.353402 -10.776127 -13.117968 -13.359318 1.406909 8.774961 -19.365331 16.838778 3.450859 -9.747282 7.071833 0.000000 0.000000 0.000000 -3.877607 13.270974 -14.277362 10.890697 -18.120487 1.741737 32.131182 18.373442 22.541386 0.000000 0.000000 0.000000 -7.125000 0.000000 0.000000 1.954655 3.881843 1.818939 0.000000 0.000000 0.000000 1.499601 12.171159 5.371357 -12.146736 -20.024254 -2.152312 -1.977065 48.360633 32.468575 0.000000 0.000000 0.000000 7.125000 0.000000 0.000000 34.015301 59.072336 -12.599200
0.135795 17.481198 7.893199 -9.652789 0.719274 10.531513 0.000000 0.000000 0.000000 -14.601374 -40.608942 18.475267 0.054503 -1.506831 -4.144584 -5.702246 41.873130 -38.174744 1.320577 7.278036 20.541826 0.000000 0.000000 0.000000 27.401765 24.819624 2.827155 -0.015000 -0.789517 2.169747 1.272913 -23.687778 -23.467144 -0.257789 -3.266825 9.022392 6.181698 0.833971 -1.600494 2.329067 1.611066 -10.978040 -1.061947 0.354533 -10.752448 -13.251256 -13.395275 1.365525 8.775948 -19.412710 16.915505 3.457450 -9.775255 7.123466 0.000000 0.000000 0.000000 -3.872918 13.095346 -13.502505 10.794572 -17.972657 1.711991 32.939030 18.284634 23.017144 0.000000 0.000000 0.000000 -7.125000 0.000000 0.000000 2.369355 3.151252 2.237438 0.000000 0.000000 0.000000 1.461943 12.210496 5.600709 -12.234479 -20.155317 -2.182397 -1.972882 48.225893 32.624836 0.000000 0.000000 0.000000 7.125000 0.000000 0.000000 34.169281 59.199937 -12.771653
0.132490 17.479492 7.893493 -9.686798 0.762656 10.440354 0.000000 0.000000 0.000000 -14.769640 -40.787094 18.802695 0.055503 -1.520150 -4.181138 -5.641656 41.904691 -38.598152 1.201496 6.954659 19.581129 0.000000 0.000000 0.000000 27.531259 24.925077 3.005907 -0.015107 -0.793869 2.181865 1.267766 -23.773514 -23.712852 -0.277512 -3.388357 9.361786 6.211496 0.869518 -1.596097 2.303133 1.652729 -10.873760 -1.110421 0.375500 -10.630438 -13.243059 -13.374796 1.264381 8.688337 -19.357722 16.961947 3.427060 -9.749160 7.139759 0.000000 0.000000 0.000000 -3.756961 12.972145 -13.621986 10.854827 -18.065455 1.730633 33.447842 17.321844 23.223794 0.000000 0.000000 0.000000 -7.125000 0.000000 0.000000 2.643019 2.790095 2.513902 0.000000 0.000000 0.000000 1.389141 12.422332 6.503490 -12.425191 -20.439321 -2.248612 -2.413188 47.606437 32.566529 0.000000 0.000000 0.000000 7.125000 0.000000 0.000000 33.684369 59.251986 -12.606146
